<?xml version="1.0" encoding="utf-8"?>
<!-- Svg Vector Icons : http://www.onlinewebfonts.com/icon -->
<!DOCTYPE svg PUBLIC "-//W3C//DTD SVG 1.1//EN" "http://www.w3.org/Graphics/SVG/1.1/DTD/svg11.dtd">
<svg version="1.1" xmlns="http://www.w3.org/2000/svg" xmlns:xlink="http://www.w3.org/1999/xlink" x="0px" y="0px" viewBox="0 0 256 256" enable-background="new 0 0 256 256" xml:space="preserve">
<metadata> Svg Vector Icons : http://www.onlinewebfonts.com/icon </metadata>
<g><g><path fill="#000000" d="M69,98.5c-8.1,0-14.8,6.6-14.8,14.8c0,8.1,6.6,14.8,14.8,14.8c8.1,0,14.8-6.6,14.8-14.8C83.8,105.1,77.1,98.5,69,98.5z M128,10C62.8,10,10,56.2,10,113.2c0,32.6,17.3,61.6,44.3,80.5V246l51.7-31.4c7.2,1.2,14.5,1.9,22.1,1.9c65.2,0,118-46.2,118-103.3C246,56.2,193.1,10,128,10z M128,201.8c-8.6,0-16.9-1-24.9-2.7l-34.7,20.9l0.5-34.2c-26.6-16-44.1-42.5-44.1-72.5c0-48.9,46.2-88.5,103.2-88.5c57,0,103.3,39.6,103.3,88.5C231.2,162.1,185,201.8,128,201.8z M128,98.5c-8.1,0-14.7,6.6-14.7,14.8c0,8.1,6.6,14.8,14.7,14.8c8.1,0,14.7-6.6,14.7-14.8C142.7,105.1,136.1,98.5,128,98.5z M187,98.5c-8.1,0-14.7,6.6-14.7,14.8c0,8.1,6.6,14.8,14.7,14.8c8.1,0,14.8-6.6,14.8-14.8C201.7,105.1,195.1,98.5,187,98.5z"/></g></g>
</svg>